<mxfile host="app.diagrams.net" modified="2024-05-29T10:26:16.640Z" agent="Mozilla/5.0 (Windows NT 10.0; Win64; x64) AppleWebKit/537.36 (KHTML, like Gecko) Chrome/125.0.0.0 Safari/537.36" version="24.4.9" etag="YojlfB22OG3cLDyPKNPp" type="github">
  <diagram name="Page-1" id="tuok9OzqPC4TruIadwJA">
    <mxGraphModel>
      <root>
        <mxCell id="0" />
        <mxCell id="1" parent="0" />
      </root>
    </mxGraphModel>
  </diagram>
</mxfile>
